<svg width="120" height="120" viewBox="0 0 120 120" fill="none" xmlns="http://www.w3.org/2000/svg">
<path d="M59.98 119.51C92.8575 119.51 119.51 92.8575 119.51 59.98C119.51 27.1025 92.8575 0.450012 59.98 0.450012C27.1025 0.450012 0.450012 27.1025 0.450012 59.98C0.450012 92.8575 27.1025 119.51 59.98 119.51Z" fill="white"/>
<path d="M59.98 119.51C92.8575 119.51 119.51 92.8575 119.51 59.98C119.51 27.1025 92.8575 0.450012 59.98 0.450012C27.1025 0.450012 0.450012 27.1025 0.450012 59.98C0.450012 92.8575 27.1025 119.51 59.98 119.51Z" stroke="#E6E6E6" stroke-width="0.91" stroke-miterlimit="10" stroke-dasharray="4.82 4.82"/>
<path d="M59.98 119.51C92.8575 119.51 119.51 92.8575 119.51 59.98C119.51 27.1025 92.8575 0.450012 59.98 0.450012C27.1025 0.450012 0.450012 27.1025 0.450012 59.98C0.450012 92.8575 27.1025 119.51 59.98 119.51Z" stroke="black" stroke-width="0.91" stroke-miterlimit="10" stroke-dasharray="4.82 4.82"/>
<path d="M15.75 88.79L14.56 86.99L24.28 80.53L27.17 84.89L25.61 85.93L23.91 83.37L21.21 85.16L22.8 87.55L21.24 88.59L19.65 86.2L15.75 88.79Z" fill="#CCCCCC"/>
<path d="M29.09 95.4601C27.71 96.8101 26.39 97.5801 25.14 97.7901C23.89 97.9901 22.8 97.6101 21.86 96.6501C20.92 95.6801 20.56 94.5801 20.8 93.3401C21.04 92.1001 21.85 90.8001 23.25 89.4401C24.63 88.0901 25.95 87.3201 27.19 87.1201C28.43 86.9201 29.53 87.3101 30.48 88.2901C31.42 89.2601 31.77 90.3601 31.53 91.5901C31.29 92.8301 30.48 94.1201 29.09 95.4701V95.4601ZM24.79 91.0401C23.84 91.9701 23.23 92.7901 22.96 93.5201C22.69 94.2501 22.79 94.8401 23.24 95.3101C24.15 96.2501 25.59 95.7701 27.54 93.8701C29.49 91.9701 30.02 90.5501 29.11 89.6201C28.65 89.1501 28.05 89.0301 27.32 89.2801C26.59 89.5201 25.74 90.1101 24.79 91.0401Z" fill="#CCCCCC"/>
<path d="M39.55 95.6701L35.29 101.9C34.51 103.05 33.65 103.74 32.72 103.99C31.79 104.24 30.83 104.03 29.85 103.36C28.89 102.7 28.37 101.91 28.28 100.96C28.19 100.02 28.55 98.9601 29.35 97.7901L33.6 91.5801L35.38 92.8001L31.04 99.1401C30.2 100.37 30.19 101.26 31 101.81C31.38 102.07 31.78 102.11 32.2 101.94C32.62 101.77 33.03 101.4 33.42 100.82L37.78 94.4401L39.56 95.6601L39.55 95.6701Z" fill="#CCCCCC"/>
<path d="M43.19 109.98L40.75 108.96L40.69 99.77L40.59 99.73C40.46 100.38 40.26 101.04 39.97 101.72L37.51 107.6L35.65 106.82L40.16 96.05L42.62 97.08L42.69 106.18L42.77 106.21C42.89 105.66 43.1 105.02 43.4 104.31L45.86 98.43L47.7 99.2L43.19 109.97V109.98Z" fill="#CCCCCC"/>
<path d="M54.62 106.44C54.25 108.33 53.58 109.7 52.61 110.55C51.64 111.4 50.43 111.68 48.99 111.39L46.19 110.84L48.46 99.39L51.52 100C52.85 100.26 53.79 100.96 54.34 102.09C54.89 103.22 54.98 104.67 54.63 106.45L54.62 106.44ZM52.42 106.07C52.93 103.51 52.47 102.09 51.06 101.81L50.21 101.64L48.68 109.39L49.37 109.53C50.15 109.68 50.79 109.47 51.29 108.9C51.79 108.32 52.17 107.38 52.43 106.08L52.42 106.07Z" fill="#CCCCCC"/>
<path d="M61.22 112.59L55.96 112.44L56.3 100.77L61.56 100.92L61.51 102.8L58.42 102.71L58.34 105.49L61.2 105.57L61.15 107.45L58.29 107.37L58.2 110.6L61.29 110.69L61.23 112.59H61.22Z" fill="#CCCCCC"/>
<path d="M65.22 107.71L65.8 112.22L63.65 112.5L62.16 100.92L64.98 100.56C66.17 100.41 67.09 100.58 67.73 101.07C68.37 101.56 68.77 102.39 68.91 103.55C69.1 105.01 68.74 106.1 67.82 106.81L70.7 111.6L68.4 111.9L65.99 107.63L65.22 107.73V107.71ZM64.98 105.86L65.53 105.79C66.04 105.72 66.38 105.53 66.57 105.22C66.75 104.9 66.81 104.46 66.74 103.89C66.66 103.3 66.49 102.89 66.22 102.67C65.95 102.45 65.57 102.37 65.08 102.43L64.54 102.5L64.97 105.86H64.98Z" fill="#CCCCCC"/>
<path d="M80.66 99.5001C81.15 100.64 81.23 101.64 80.92 102.49C80.61 103.35 79.9 104 78.82 104.47L78.32 104.68L79.98 108.57L77.98 109.42L73.39 98.6901L76.11 97.5301C78.2 96.6401 79.71 97.2901 80.65 99.5001H80.66ZM77.58 102.95L77.96 102.79C78.45 102.58 78.76 102.29 78.88 101.92C79 101.55 78.94 101.06 78.68 100.44C78.44 99.8801 78.15 99.5101 77.81 99.3301C77.47 99.1501 77.08 99.1601 76.62 99.3601L76.14 99.5701L77.59 102.95H77.58Z" fill="#CCCCCC"/>
<path d="M90.18 103.06L88.03 100.93L85.46 102.56L86.47 105.41L84.64 106.58L80.79 95.1401L83.28 93.5601L92.01 101.9L90.17 103.07L90.18 103.06ZM86.66 99.5301L84.68 97.5701C84.56 97.4501 84.27 97.1501 83.8 96.6601C83.33 96.1701 83.03 95.8401 82.89 95.6601C83.08 96.0801 83.27 96.5601 83.48 97.0801C83.69 97.6001 84.13 98.8101 84.8 100.71L86.66 99.5301Z" fill="#CCCCCC"/>
<path d="M91.99 95.83L95.06 99.18L93.46 100.65L85.57 92.05L87.66 90.13C88.55 89.32 89.39 88.93 90.2 88.96C91.01 88.99 91.81 89.44 92.6 90.3C93.6 91.39 93.93 92.48 93.59 93.59L98.7 95.85L96.99 97.42L92.56 95.32L91.99 95.84V95.83ZM90.73 94.45L91.14 94.07C91.52 93.72 91.69 93.37 91.66 93C91.63 92.64 91.42 92.24 91.03 91.82C90.63 91.38 90.25 91.15 89.91 91.12C89.56 91.09 89.21 91.25 88.84 91.58L88.44 91.95L90.73 94.44V94.45Z" fill="#CCCCCC"/>
<path d="M104.37 88.61L102.96 90.44L97.84 88.91L98 90.13L101.26 92.64L99.94 94.36L90.69 87.24L92.01 85.52L96.6 89.05L95.68 87.38L93.69 83.34L95.11 81.5L97.47 86.72L104.38 88.59L104.37 88.61Z" fill="#CCCCCC"/>
<g style="mix-blend-mode:multiply">
<path d="M24.95 38.31L22.04 37.51L20.6 40.19L22.88 42.17L21.85 44.08L12.89 35.99L14.28 33.39L25.98 36.38L24.95 38.3V38.31ZM20.15 36.96L17.46 36.22C17.3 36.17 16.89 36.05 16.25 35.85C15.6 35.65 15.18 35.51 14.97 35.43C15.34 35.71 15.74 36.02 16.18 36.38C16.61 36.73 17.59 37.57 19.11 38.9L20.15 36.96Z" fill="#CCCCCC"/>
<path d="M23.06 29.86L25.29 27.08L29.96 30.83C29.66 31.89 29.16 32.86 28.45 33.75C27.6 34.81 26.54 35.3 25.28 35.23C24.02 35.16 22.63 34.51 21.11 33.29C19.65 32.12 18.77 30.87 18.46 29.56C18.16 28.24 18.48 27 19.42 25.82C20 25.09 20.75 24.55 21.65 24.19L22.6 25.83C21.89 26.11 21.35 26.47 20.99 26.92C20.47 27.56 20.35 28.3 20.63 29.14C20.9 29.98 21.54 30.79 22.53 31.59C23.55 32.41 24.44 32.9 25.21 33.07C25.97 33.23 26.56 33.06 26.98 32.54C27.2 32.27 27.39 31.96 27.54 31.62L25.45 29.95L24.55 31.08L23.06 29.88V29.86Z" fill="#CCCCCC"/>
<path d="M31.14 30.55L23.14 22.05L24.63 20.65L32.63 29.15L31.14 30.55Z" fill="#CCCCCC"/>
<path d="M39.4 15.02C40 16.11 40.18 17.09 39.95 17.97C39.72 18.85 39.09 19.58 38.05 20.14L37.57 20.4L39.6 24.11L37.7 25.15L32.09 14.92L34.69 13.5C36.68 12.41 38.25 12.91 39.4 15.01V15.02ZM36.67 18.76L37.03 18.56C37.5 18.3 37.77 17.99 37.86 17.6C37.95 17.22 37.83 16.74 37.51 16.15C37.22 15.61 36.89 15.27 36.54 15.13C36.19 14.99 35.79 15.03 35.35 15.28L34.89 15.53L36.66 18.76H36.67Z" fill="#CCCCCC"/>
<path d="M43.56 22.08L39.48 11.14L41.51 10.38L44.92 19.54L47.74 18.49L48.4 20.27L43.55 22.08H43.56Z" fill="#CCCCCC"/>
<path d="M53.96 19.1L52.72 16.35L49.74 16.95L49.67 19.97L47.54 20.4L48.05 8.34001L50.94 7.76001L56.1 18.67L53.96 19.1ZM51.94 14.54L50.79 12C50.72 11.85 50.56 11.46 50.3 10.83C50.04 10.21 49.88 9.79001 49.81 9.57001C49.83 10.03 49.85 10.54 49.85 11.11C49.85 11.67 49.83 12.96 49.78 14.97L51.94 14.53V14.54Z" fill="#CCCCCC"/>
<path d="M58.16 11.7L59.55 7.04002L61.82 6.96002L59.3 14.05L59.47 18.73L57.33 18.81L57.17 14.22L54.16 7.24002L56.45 7.16002L58.16 11.71V11.7Z" fill="#CCCCCC"/>
<path d="M66.09 12.67L69.63 13.13L68.86 19.07C67.8 19.37 66.71 19.44 65.58 19.29C64.23 19.11 63.26 18.47 62.67 17.35C62.08 16.23 61.91 14.71 62.16 12.78C62.4 10.92 63.01 9.52003 63.97 8.58003C64.94 7.64003 66.17 7.26003 67.66 7.46003C68.58 7.58003 69.43 7.93003 70.21 8.52003L69.3 10.19C68.7 9.72003 68.11 9.46003 67.54 9.38003C66.72 9.27003 66.03 9.55003 65.45 10.22C64.88 10.89 64.51 11.85 64.34 13.12C64.17 14.42 64.21 15.44 64.47 16.17C64.73 16.91 65.18 17.32 65.84 17.4C66.19 17.45 66.55 17.45 66.92 17.4L67.27 14.75L65.84 14.56L66.09 12.66V12.67Z" fill="#CCCCCC"/>
<path d="M72.7 16.03L71.33 20.36L69.26 19.71L72.77 8.58002L75.48 9.43002C76.63 9.79002 77.39 10.33 77.76 11.05C78.13 11.77 78.15 12.68 77.79 13.8C77.35 15.21 76.56 16.04 75.44 16.3L76.04 21.86L73.82 21.16L73.43 16.27L72.69 16.04L72.7 16.03ZM73.26 14.25L73.79 14.42C74.28 14.57 74.67 14.55 74.97 14.34C75.27 14.13 75.51 13.75 75.68 13.2C75.86 12.63 75.87 12.19 75.72 11.88C75.57 11.57 75.26 11.34 74.79 11.19L74.27 11.03L73.25 14.26L73.26 14.25Z" fill="#CCCCCC"/>
<path d="M85.64 20.3901C84.73 22.0901 83.71 23.2301 82.58 23.8101C81.45 24.3801 80.29 24.35 79.11 23.72C77.92 23.08 77.25 22.14 77.1 20.88C76.95 19.63 77.33 18.1401 78.25 16.4201C79.16 14.7201 80.18 13.5801 81.3 13.0101C82.42 12.4401 83.59 12.4801 84.79 13.1201C85.98 13.7501 86.64 14.7001 86.79 15.9501C86.94 17.2001 86.55 18.6801 85.64 20.3801V20.3901ZM80.2 17.4801C79.57 18.6501 79.24 19.6301 79.21 20.4001C79.18 21.1701 79.45 21.7101 80.02 22.0201C81.17 22.6401 82.39 21.7401 83.68 19.3401C84.96 16.9401 85.03 15.4301 83.89 14.8201C83.31 14.5101 82.71 14.5801 82.08 15.0401C81.46 15.4901 80.83 16.3101 80.2 17.4901V17.4801Z" fill="#CCCCCC"/>
<path d="M96.1 21.35L91.3 27.18C90.42 28.25 89.5 28.87 88.55 29.04C87.6 29.21 86.67 28.91 85.75 28.16C84.85 27.42 84.4 26.58 84.4 25.63C84.4 24.68 84.84 23.66 85.75 22.57L90.53 16.77L92.19 18.14L87.31 24.07C86.37 25.22 86.27 26.1 87.03 26.73C87.38 27.02 87.78 27.1 88.21 26.97C88.64 26.84 89.08 26.5 89.53 25.96L94.44 20L96.1 21.37V21.35Z" fill="#CCCCCC"/>
<path d="M94.29 37.16L92.63 35.09L96.96 26.98L96.9 26.9C96.48 27.41 95.98 27.89 95.41 28.36L90.44 32.35L89.18 30.78L98.28 23.47L99.95 25.55L95.66 33.58L95.71 33.65C96.08 33.22 96.57 32.77 97.17 32.28L102.14 28.29L103.39 29.85L94.29 37.16Z" fill="#CCCCCC"/>
<path d="M103.3 41.73C101.58 42.6 100.09 42.91 98.82 42.67C97.56 42.43 96.59 41.65 95.93 40.33L94.64 37.78L105.06 32.52L106.47 35.31C107.08 36.52 107.11 37.69 106.55 38.82C105.99 39.95 104.91 40.92 103.29 41.73H103.3ZM102.24 39.77C104.57 38.6 105.41 37.37 104.76 36.08L104.37 35.3L97.32 38.86L97.64 39.49C98 40.2 98.56 40.57 99.32 40.61C100.08 40.65 101.06 40.37 102.24 39.77Z" fill="#CCCCCC"/>
</g>
<path d="M97.82 51.62L96.39 72.5C95.77 79.59 89.97 82.28 83.44 81.63C78.26 81.11 73.9 77.84 73.96 72.28C76.66 73.05 79.78 73.84 82.6 73.31C83.62 73.12 84.66 72.71 85.27 71.84C80.82 72.01 75.28 70.56 74.16 65.63L72.18 51.63L83.93 51.72L85.62 65.52H86.96L85.27 51.63H97.82V51.62Z" fill="#00AEEF"/>
<path d="M21.42 66.31V71.39H9.67001V48.42H22.63C22.81 48.41 22.98 48.5 23.16 48.51C26.61 48.69 30.8 49.21 33.17 52.03C35.28 54.54 35.45 59.01 33.74 61.77C31.31 65.7 25.61 66.23 21.42 66.32V66.31ZM21.42 59.72C22.95 59.85 22.94 57.34 22.73 56.32C22.58 55.58 22.33 54.84 21.42 55V59.72Z" fill="#00AEEF"/>
<path d="M73.33 71.39C70.89 71.28 68.32 71.53 65.89 71.39C64.44 71.31 62.97 71 61.96 69.88C59.35 71.77 55.46 72.58 52.31 71.88C49.09 71.16 47.76 68.55 48.04 65.38C48.49 60.4 54.85 58.34 59.06 59.52L60.59 60.04C59.87 57.55 56.79 57.51 54.68 57.78C52.57 58.05 50.48 58.84 48.75 59.99C48.72 56.43 50.69 53.58 53.94 52.23C57.53 50.73 63.7 50.69 67.29 52.18C73.82 54.89 71.5 61.36 72.08 66.89C72.24 68.45 72.7 69.96 73.33 71.39ZM60.6 64C59.55 63.86 59.43 66.32 60.11 66.32C60.32 66.34 60.6 65.76 60.6 65.65V64Z" fill="#00AEEF"/>
<path d="M47.07 46.9H35.67V71.38H47.07V46.9Z" fill="#00AEEF"/>
<path d="M110.64 48.33L109.3 61.77C106.52 59.53 102.64 59.54 99.86 61.77L98.52 48.33H110.63H110.64Z" fill="#00AEEF"/>
<path d="M103.85 61.44C108.84 60.93 112.34 66.0301 109.94 70.4701C107.9 74.2401 102.6 74.74 99.87 71.43C96.8 67.71 99.06 61.93 103.86 61.44H103.85Z" fill="#00AEEF"/>
<path d="M53.19 39.4301C53.47 39.7901 53.93 39.9801 54.36 40.0901C55.76 40.4301 57.38 40.1101 58.65 39.4701C58.23 42.4501 55 43.0201 52.49 42.8901C49.41 42.7301 47.1 40.7501 47.54 37.4901C47.89 34.8801 50.11 33.7801 52.53 33.6501C55.36 33.5001 58.31 34.3501 58.69 37.5701C58.87 39.0501 58.39 39.3901 57.01 39.6301C55.73 39.8501 54.44 39.7901 53.19 39.4401V39.4301ZM53.03 36.1801C52.94 36.2501 52.8 37.2401 52.79 37.4101C52.77 37.9201 53.33 37.8701 53.79 37.8901C53.69 37.4401 53.43 36.9201 53.25 36.5101C53.22 36.4501 53.11 36.1701 53.03 36.1901V36.1801Z" fill="#00B8A5"/>
<path d="M71.05 39.18C72.36 39.92 74.1 40.21 75.6 40.02C75.8 39.99 76.73 39.85 76.62 39.53C76.6 39.47 76.5 39.44 76.44 39.43C75.75 39.32 74.81 39.51 74.08 39.47C72.75 39.4 71.45 39 71.21 37.52C70.54 33.26 77.97 32.94 80.35 34.56C81.18 35.13 81.57 35.96 81.6 36.96L81.52 37.01C81.01 36.78 80.38 36.64 79.82 36.59C79.17 36.52 76.91 36.46 76.51 37.01C76.47 37.07 76.4 37.14 76.47 37.21C76.57 37.33 76.91 37.31 77.06 37.31C78.57 37.26 81.45 36.51 81.88 38.67C82.15 40.01 81.53 41.4 80.37 42.1C78.64 43.15 74.91 43.21 73.07 42.42C71.7 41.84 71.04 40.66 71.06 39.19L71.05 39.18Z" fill="#00B8A5"/>
<path d="M64.43 31.35V33.8H66.2V37.54H64.51V38.81C64.51 38.81 64.6 39.06 64.62 39.1C65.01 39.88 66.48 39.73 67.2 39.63V40.21C67.2 41.84 65.7 43.07 64.2 43.31C61.35 43.78 59.13 42.63 59.1 39.53V31.36H64.44L64.43 31.35Z" fill="#00B8A5"/>
<path d="M43.72 32.36V38.79H47.39L47.45 38.85V42.73H41.32C39.2 42.73 38.46 41.71 38.46 40.3V32.37H43.72V32.36Z" fill="#00B8A5"/>
<path d="M68.12 38.06C68.32 37.41 68.35 36.78 68.15 36.12C67.78 34.92 66.59 34.56 66.99 33.08C67.51 31.12 70.42 31.38 70.68 33.3C70.92 35.11 69.77 37.28 68.12 38.05V38.06Z" fill="#00B8A5"/>
<path d="M71.51 81.53H48.87C47.042 81.53 45.56 83.012 45.56 84.84V89.07C45.56 90.8981 47.042 92.38 48.87 92.38H71.51C73.3381 92.38 74.82 90.8981 74.82 89.07V84.84C74.82 83.012 73.3381 81.53 71.51 81.53Z" fill="#F2F2F2"/>
<path d="M71.51 92.82H48.88C46.82 92.82 45.14 91.14 45.14 89.08V84.85C45.14 82.79 46.82 81.11 48.88 81.11H71.51C73.57 81.11 75.25 82.79 75.25 84.85V89.08C75.25 91.14 73.57 92.82 71.51 92.82ZM48.88 81.97C47.29 81.97 46 83.26 46 84.85V89.08C46 90.67 47.29 91.96 48.88 91.96H71.51C73.1 91.96 74.39 90.67 74.39 89.08V84.85C74.39 83.26 73.1 81.97 71.51 81.97H48.88Z" fill="black"/>
<path d="M69.95 90.56C69.95 90.47 69.98 90.38 70.05 90.31C70.86 89.45 71.34 88.33 71.38 87.14C71.43 85.96 71.05 84.81 70.31 83.9C70.23 83.8 70.14 83.69 70.04 83.59C69.9 83.45 69.91 83.22 70.05 83.08C70.19 82.94 70.42 82.95 70.56 83.09C70.67 83.2 70.77 83.32 70.87 83.44C71.71 84.49 72.15 85.81 72.09 87.16C72.04 88.52 71.49 89.81 70.56 90.79C70.42 90.93 70.2 90.94 70.05 90.8C69.98 90.73 69.94 90.63 69.94 90.54L69.95 90.56Z" fill="black"/>
<path d="M68.72 89.48C68.72 89.39 68.76 89.3 68.83 89.23C69.44 88.62 69.77 87.8199 69.77 86.9599C69.77 86.0999 69.44 85.3 68.83 84.69C68.69 84.55 68.69 84.32 68.83 84.18C68.97 84.04 69.2 84.04 69.34 84.18C70.08 84.92 70.49 85.91 70.49 86.9599C70.49 88.0099 70.08 88.9999 69.34 89.7399C69.2 89.8799 68.97 89.8799 68.83 89.7399C68.76 89.6699 68.72 89.5799 68.72 89.4899V89.48Z" fill="black"/>
<path d="M67.54 88.4C67.54 88.31 67.58 88.22 67.65 88.15C68.3 87.5 68.3 86.43 67.65 85.78C67.51 85.64 67.51 85.41 67.65 85.27C67.79 85.13 68.02 85.13 68.16 85.27C69.1 86.21 69.1 87.73 68.16 88.66C68.02 88.8 67.79 88.8 67.65 88.66C67.58 88.59 67.54 88.5 67.54 88.41V88.4Z" fill="black"/>
<path d="M50.39 89.1H49.51V85.12H48.6V84.34H51.31V85.12H50.4V89.1H50.39Z" fill="black"/>
<path d="M53.15 89.1L52.98 88.6H52.96C52.83 88.81 52.7 88.96 52.56 89.04C52.42 89.12 52.25 89.16 52.04 89.16C51.77 89.16 51.56 89.06 51.41 88.86C51.26 88.66 51.18 88.38 51.18 88.03C51.18 87.65 51.28 87.36 51.49 87.18C51.7 86.99 52.01 86.89 52.43 86.87L52.91 86.85V86.59C52.91 86.25 52.76 86.08 52.47 86.08C52.25 86.08 52 86.16 51.72 86.33L51.42 85.73C51.78 85.5 52.17 85.39 52.6 85.39C52.98 85.39 53.28 85.5 53.48 85.72C53.68 85.94 53.78 86.25 53.78 86.66V89.1H53.14H53.15ZM52.4 88.49C52.56 88.49 52.69 88.42 52.78 88.28C52.87 88.14 52.92 87.95 52.92 87.71V87.4H52.65C52.45 87.42 52.31 87.48 52.22 87.58C52.13 87.68 52.08 87.83 52.08 88.04C52.08 88.34 52.19 88.49 52.4 88.49Z" fill="black"/>
<path d="M55.93 89.17C55.77 89.17 55.64 89.13 55.51 89.06C55.39 88.99 55.28 88.87 55.17 88.69H55.12C55.15 88.99 55.17 89.16 55.17 89.22V90.7H54.3V85.47H54.97L55.12 85.94H55.16C55.34 85.58 55.6 85.4 55.95 85.4C56.3 85.4 56.54 85.56 56.73 85.89C56.92 86.22 57.01 86.68 57.01 87.28C57.01 87.88 56.91 88.33 56.72 88.66C56.53 88.99 56.26 89.16 55.93 89.16V89.17ZM55.66 86.14C55.49 86.14 55.37 86.22 55.29 86.38C55.22 86.54 55.18 86.8 55.17 87.16V87.27C55.17 87.67 55.21 87.96 55.28 88.14C55.36 88.32 55.48 88.41 55.66 88.41C55.96 88.41 56.12 88.03 56.12 87.26C56.12 86.88 56.08 86.6 56.01 86.41C55.94 86.22 55.82 86.13 55.66 86.13V86.14Z" fill="black"/>
<path d="M60.16 89.1L59.25 85.04H59.21C59.25 85.35 59.27 85.64 59.27 85.9V89.1H58.45V84.34H59.81L60.62 88.08H60.65L61.46 84.34H62.84V89.1H62V85.87C62 85.6 62.02 85.33 62.05 85.05H62.02L61.12 89.1H60.15H60.16Z" fill="black"/>
<path d="M64.81 89.1699C64.36 89.1699 64 89.0099 63.74 88.6899C63.48 88.3699 63.35 87.9099 63.35 87.3199C63.35 86.7299 63.47 86.2499 63.71 85.9199C63.95 85.5799 64.28 85.4199 64.7 85.4199C65.1 85.4199 65.41 85.5599 65.63 85.8499C65.86 86.1399 65.97 86.5399 65.97 87.0599V87.5199H64.23C64.23 87.8399 64.3 88.0799 64.43 88.2399C64.56 88.3999 64.73 88.4799 64.95 88.4799C65.23 88.4799 65.52 88.3899 65.82 88.2199V88.9299C65.54 89.0999 65.21 89.1799 64.82 89.1799L64.81 89.1699ZM64.68 86.0799C64.56 86.0799 64.45 86.1499 64.37 86.2799C64.29 86.4099 64.24 86.6199 64.23 86.8899H65.11C65.11 86.6299 65.07 86.4199 64.99 86.2899C64.91 86.1499 64.81 86.0799 64.68 86.0799Z" fill="black"/>
</svg>
